<svg width="26" height="26" viewBox="0 0 26 26" fill="none" xmlns="http://www.w3.org/2000/svg">
<path d="M21.4441 0.333008H4.55523C2.2271 0.333008 0.333008 2.29241 0.333008 4.70082V15.1836C0.333008 17.592 2.2271 19.5514 4.55523 19.5514H6.24412V24.7928C6.24412 25.1461 6.44974 25.4645 6.76514 25.5999C6.86985 25.6445 6.97963 25.6663 7.08856 25.6663C7.30854 25.6663 7.52387 25.5777 7.68558 25.4104L13.3493 19.5514H21.4441C23.7723 19.5514 25.6663 17.592 25.6663 15.1836V4.70082C25.6663 2.29241 23.7723 0.333008 21.4441 0.333008ZM16.5886 10.6641H6.24412C5.77799 10.6641 5.39967 10.4244 5.39967 9.9422C5.39967 9.46 5.77799 9.22034 6.24412 9.22034H16.5886C17.0547 9.22034 17.433 9.46 17.433 9.9422C17.433 10.4244 17.0547 10.6641 16.5886 10.6641ZM19.7552 7.16982H6.24412C5.77799 7.16982 5.39967 6.93016 5.39967 6.44795C5.39967 5.96574 5.77799 5.72608 6.24412 5.72608H19.7552C20.2214 5.72608 20.5997 5.96574 20.5997 6.44795C20.5997 6.93016 20.2214 7.16982 19.7552 7.16982Z" fill="#2E2E2C"/>
</svg>
